<svg width="18" height="22" viewBox="0 0 18 22" fill="none" xmlns="http://www.w3.org/2000/svg">
<path d="M2.99973 11L1.24773 17.13C1.17933 17.3685 1.20204 17.6239 1.31145 17.8466C1.42086 18.0693 1.60915 18.2434 1.83973 18.335L8.12173 20.838C8.68713 21.054 9.31233 21.054 9.87773 20.838L16.1597 18.335C16.3901 18.2434 16.5782 18.0695 16.6876 17.847C16.797 17.6246 16.8199 17.3694 16.7517 17.131L14.9997 11M2.99973 11L1.24773 4.86902C1.17961 4.63065 1.20247 4.37548 1.31185 4.15301C1.42124 3.93053 1.60937 3.75662 1.83973 3.66502L8.12173 1.16202C8.68713 0.945994 9.31233 0.945994 9.87773 1.16202L16.1597 3.66502C16.3903 3.75664 16.5786 3.93071 16.688 4.1534C16.7974 4.3761 16.8201 4.63151 16.7517 4.87002L14.9997 11M2.99973 11L8.20973 12.862C8.72047 13.0452 9.27899 13.0452 9.78973 12.862L14.9997 11M1.49973 4.50002L8.12173 6.83002C8.68508 7.05693 9.31439 7.05693 9.87773 6.83002L16.4997 4.50002M8.99973 21V7.00002" stroke="#4B4B4C" stroke-width="1.5" stroke-linecap="round" stroke-linejoin="round"/>
</svg>
